<?xml version="1.0" standalone="no"?>
<!DOCTYPE svg PUBLIC "-//W3C//DTD SVG 20010904//EN"
 "http://www.w3.org/TR/2001/REC-SVG-20010904/DTD/svg10.dtd">
<svg version="1.0" xmlns="http://www.w3.org/2000/svg"
 width="188.000000pt" height="188.000000pt" viewBox="0 0 188.000000 188.000000"
 preserveAspectRatio="xMidYMid meet">
<metadata>
Created by potrace 1.11, written by Peter Selinger 2001-2013
</metadata>
<g transform="translate(0.000000,188.000000) scale(0.100000,-0.100000)"
fill="#000000" stroke="none">
<path d="M15 1108 l0 -282 119 0 c65 -1 123 2 128 5 11 7 17 169 7 169 -4 0
-12 -21 -18 -46 -17 -65 -60 -106 -106 -102 l-36 3 0 268 0 267 -47 0 -48 0 1
-282z"/>
<path d="M371 1110 c-1 -216 2 -280 12 -281 6 -1 28 -2 47 -2 l35 -1 0 282 0
282 -46 0 -47 0 -1 -280z"/>
<path d="M552 1107 l0 -282 122 1 c66 1 124 2 129 3 4 1 7 40 6 89 0 70 -2 82
-11 62 -6 -14 -17 -42 -26 -63 -19 -48 -46 -67 -92 -67 l-35 0 0 270 0 270
-47 0 -47 0 1 -283z"/>
<path d="M915 1108 l1 -282 34 0 c19 1 42 2 50 3 13 1 15 38 12 281 l-3 280
-47 0 -47 0 0 -282z"/>
<path d="M1099 1378 c-1 -18 -1 -130 0 -148 1 -8 10 9 20 39 21 61 44 87 84
97 l28 6 -3 -271 -3 -271 50 0 50 0 -2 271 -2 271 27 -7 c39 -9 59 -33 81 -95
l20 -55 0 88 1 87 -175 0 c-133 0 -175 -3 -176 -12z"/>
<path d="M1538 1110 l3 -280 47 0 47 0 -1 134 -1 135 71 -2 71 -2 0 -133 0
-132 50 0 50 0 0 280 0 280 -50 0 -50 0 3 -135 3 -135 -75 0 -75 0 2 135 2
135 -50 0 -50 0 3 -280z"/>
<path d="M34 686 c-35 -35 -36 -39 -30 -84 8 -64 40 -92 105 -92 54 0 81 19
57 39 -12 10 -20 10 -38 0 -13 -7 -25 -11 -28 -10 -3 2 -12 7 -21 12 -26 13
-39 62 -26 89 19 37 42 46 79 32 26 -10 35 -9 46 1 19 20 -7 38 -63 44 -41 5
-47 3 -81 -31z"/>
<path d="M345 708 c-37 -20 -55 -52 -55 -96 0 -63 40 -102 105 -102 65 0 105
39 105 102 -1 82 -85 135 -155 96z m88 -40 c9 -7 20 -27 23 -45 5 -26 1 -37
-20 -58 -30 -30 -59 -27 -88 7 -49 56 25 140 85 96z"/>
<path d="M673 710 c-44 -18 -71 -88 -52 -136 15 -42 50 -64 98 -64 58 0 80 12
62 34 -9 10 -19 12 -34 7 -24 -9 -67 3 -79 22 -16 25 -8 76 14 91 27 19 59 21
76 4 8 -8 15 -8 28 3 15 12 14 15 -6 31 -24 19 -71 23 -107 8z"/>
<path d="M948 632 c-55 -130 -53 -122 -29 -122 13 0 26 9 32 23 9 19 18 23 57
22 40 0 47 -3 50 -21 3 -23 52 -41 52 -20 0 6 -19 55 -42 109 -55 130 -69 131
-120 9z m82 -29 c0 -7 -11 -13 -25 -13 -29 0 -28 -2 -14 40 l12 33 13 -24 c7
-13 13 -30 14 -36z"/>
<path d="M1230 616 c0 -98 1 -106 19 -106 25 0 27 13 21 119 -4 71 -8 86 -22
89 -16 3 -18 -7 -18 -102z"/>
<path d="M1409 718 c-1 -2 -2 -49 -4 -105 -1 -101 -1 -103 21 -103 22 0 23 4
21 60 -2 33 0 60 4 60 3 0 27 -27 53 -60 29 -36 55 -60 67 -60 17 0 19 8 19
100 0 82 -3 102 -15 107 -23 8 -25 3 -27 -65 -1 -34 -3 -62 -4 -62 -1 0 -26
29 -54 65 -43 53 -73 77 -81 63z"/>
<path d="M1720 613 l0 -103 81 0 c71 0 80 2 77 18 -3 13 -13 17 -48 17 -53 1
-70 9 -70 36 0 16 7 19 45 19 38 0 45 3 45 20 0 17 -6 20 -40 18 -22 -1 -43 2
-46 5 -13 13 7 38 28 37 58 -5 78 0 78 19 0 18 -7 19 -75 18 l-75 -1 0 -103z"/>
</g>
</svg>
