<?xml version="1.0" encoding="utf-8"?><svg xmlns="http://www.w3.org/2000/svg" xmlns:xlink="http://www.w3.org/1999/xlink"><symbol viewBox="0 0 25 25" id="award" xmlns="http://www.w3.org/2000/svg"><g fill="none"><path d="M0 0h25v25H0z"/><g fill="#929292"><path d="M22.827 21.85l-2.518-3.237a3.645 3.645 0 0 0 1.992-1.475c.593-1.025.325-2.276.065-3.484a9.516 9.516 0 0 1-.28-1.895c.03-.64.123-1.276.28-1.897.258-1.21.528-2.46-.065-3.483-.614-1.06-1.85-1.453-3.046-1.832a8.862 8.862 0 0 1-1.72-.674 8.406 8.406 0 0 1-1.379-1.117C15.27 1.932 14.263 1 12.983 1s-2.286.932-3.174 1.755c-.419.42-.88.795-1.378 1.118a8.86 8.86 0 0 1-1.72.672c-1.196.379-2.432.772-3.046 1.833-.593 1.025-.325 2.276-.065 3.484.156.621.25 1.257.28 1.897a9.513 9.513 0 0 1-.28 1.896c-.259 1.21-.528 2.46.065 3.483a3.645 3.645 0 0 0 1.994 1.474l-2.52 3.237a.414.414 0 0 0 .378.665l2.958-.37.73 2.556a.414.414 0 0 0 .725.14l2.643-3.399a3.826 3.826 0 0 0 2.41 1.076 3.826 3.826 0 0 0 2.41-1.076l2.642 3.398a.414.414 0 0 0 .725-.139l.73-2.555 2.959.37a.414.414 0 0 0 .378-.665zm-15.05 1.839l-.603-2.113a.414.414 0 0 0-.45-.297l-2.317.29 2.077-2.67.229.073a8.86 8.86 0 0 1 1.718.672c.498.323.96.698 1.378 1.118l.143.131-2.175 2.796zm5.206-2c-.956 0-1.76-.744-2.612-1.534a9.121 9.121 0 0 0-1.526-1.227 9.594 9.594 0 0 0-1.884-.745c-1.094-.347-2.127-.675-2.58-1.459-.433-.748-.21-1.792.027-2.896.17-.678.27-1.371.299-2.07a10.129 10.129 0 0 0-.298-2.068c-.238-1.105-.461-2.148-.028-2.897.455-.784 1.487-1.111 2.58-1.459a9.597 9.597 0 0 0 1.884-.744 9.12 9.12 0 0 0 1.526-1.228c.852-.79 1.656-1.534 2.612-1.534.956 0 1.76.744 2.611 1.534.464.463.975.874 1.527 1.228a9.58 9.58 0 0 0 1.884.744c1.093.348 2.127.675 2.58 1.46.433.748.21 1.79-.028 2.896-.17.677-.27 1.37-.298 2.069.027.698.127 1.391.298 2.069.237 1.104.46 2.147.028 2.896-.455.784-1.487 1.112-2.58 1.459a9.597 9.597 0 0 0-1.884.745 9.12 9.12 0 0 0-1.526 1.227c-.852.79-1.656 1.535-2.612 1.535zm6.26-.41a.414.414 0 0 0-.449.297l-.606 2.113-2.174-2.795.143-.132c.418-.42.88-.795 1.377-1.118a8.86 8.86 0 0 1 1.72-.672l.229-.073 2.077 2.67-2.317-.29z"/><path d="M12.983 4.31a7.448 7.448 0 1 0 7.448 7.449 7.457 7.457 0 0 0-7.448-7.449zm0 14.07a6.62 6.62 0 1 1 6.62-6.621 6.629 6.629 0 0 1-6.62 6.62z"/><path d="M17.757 10.03a.827.827 0 0 0-.669-.34h-2.533l-.786-2.412a.828.828 0 0 0-1.572 0l-.785 2.412H8.877a.828.828 0 0 0-.487 1.496l2.05 1.49-.783 2.411a.828.828 0 0 0 1.274.925l2.052-1.489 2.05 1.49a.816.816 0 0 0 .974 0 .816.816 0 0 0 .3-.925l-.783-2.412 2.051-1.49a.828.828 0 0 0 .182-1.156zm-2.963 2.154a.414.414 0 0 0-.15.463l.877 2.697-2.295-1.667a.414.414 0 0 0-.486 0l-2.295 1.667.876-2.697a.414.414 0 0 0-.15-.463l-2.294-1.667h2.836c.18 0 .338-.115.393-.286l.877-2.697.876 2.697c.056.17.214.286.394.286h2.835l-2.294 1.667z"/></g></g></symbol><symbol viewBox="0 0 20 22" id="cart" xmlns="http://www.w3.org/2000/svg"><path d="M19.993 21.452L18.348 6.137a.502.502 0 0 0-.494-.438h-3.043v-.932A4.772 4.772 0 0 0 10.041 0a4.772 4.772 0 0 0-4.77 4.767V5.7H2.146a.502.502 0 0 0-.494.438L.007 21.452a.49.49 0 0 0 .11.384c.082.11.22.164.356.164h19.054a.442.442 0 0 0 .356-.164.49.49 0 0 0 .11-.384zM14.318 8.466c.247 0 .439.192.439.438a.433.433 0 0 1-.44.438.433.433 0 0 1-.438-.438c0-.246.192-.438.439-.438zm-8.06-3.699A3.79 3.79 0 0 1 10.04.987a3.79 3.79 0 0 1 3.783 3.78V5.7H6.258v-.932zm-.494 3.699c.247 0 .439.192.439.438a.433.433 0 0 1-.439.438.433.433 0 0 1-.438-.438c0-.246.192-.438.438-.438zM1.05 20.986L2.584 6.658h2.687v.904a1.393 1.393 0 0 0-.932 1.315c0 .767.63 1.397 1.398 1.397.768 0 1.398-.63 1.398-1.397 0-.603-.384-1.124-.932-1.315v-.904h7.567v.904a1.393 1.393 0 0 0-.933 1.315c0 .767.631 1.397 1.399 1.397.767 0 1.398-.63 1.398-1.397 0-.603-.384-1.124-.932-1.315v-.904h2.796l1.535 14.328H1.05z"/></symbol><symbol viewBox="0 0 451.847 451.847" id="dropdown" xmlns="http://www.w3.org/2000/svg"><path d="M225.923 354.706c-8.098 0-16.195-3.092-22.369-9.263L9.27 151.157c-12.359-12.359-12.359-32.397 0-44.751 12.354-12.354 32.388-12.354 44.748 0l171.905 171.915 171.906-171.909c12.359-12.354 32.391-12.354 44.744 0 12.365 12.354 12.365 32.392 0 44.751L248.292 345.449c-6.177 6.172-14.274 9.257-22.369 9.257z"/></symbol><symbol viewBox="0 0 10 16" id="facebook" xmlns="http://www.w3.org/2000/svg"><path fill="#FFF" d="M9.15.003H6.732S6.683 0 6.595 0c-.496 0-3.006.139-3.688 2.845-.011.03-.24.707-.244 2.282H.369a.37.37 0 0 0-.369.37v2.127c0 .204.165.37.369.37h2.509v7.635a.37.37 0 0 0 .368.371H6.12a.37.37 0 0 0 .369-.37V8.001h2.517a.37.37 0 0 0 .368-.37V5.497a.37.37 0 0 0-.368-.37H6.493v-.913c0-.608.383-1.257 1.46-1.257H9.15a.37.37 0 0 0 .369-.37V.372a.37.37 0 0 0-.369-.37zm-.368 2.214h-.83c-1.517 0-2.196 1.003-2.196 1.998v1.283c0 .205.165.37.368.37h2.512v1.393H6.12a.37.37 0 0 0-.369.37v7.628H3.615V7.624a.37.37 0 0 0-.369-.371H.737V5.869h2.297a.367.367 0 0 0 .369-.378c-.033-1.687.198-2.396.209-2.432C4.155.909 6.032.74 6.595.74c.051 0 .082.002.112.003h2.075v1.473z" opacity=".7"/></symbol><symbol viewBox="0 0 16 16" id="instagram" xmlns="http://www.w3.org/2000/svg"><g fill="#FFF" opacity=".7"><path d="M11.669 0H4.33A4.336 4.336 0 0 0 0 4.331v7.338A4.336 4.336 0 0 0 4.331 16h7.338A4.336 4.336 0 0 0 16 11.67V4.33A4.336 4.336 0 0 0 11.669 0zm3.393 11.67a3.397 3.397 0 0 1-3.393 3.392H4.33a3.397 3.397 0 0 1-3.393-3.393V4.331A3.397 3.397 0 0 1 4.331.938h7.338a3.397 3.397 0 0 1 3.393 3.393v7.338z"/><path d="M8 3.647A4.358 4.358 0 0 0 3.647 8c0 2.4 1.953 4.353 4.353 4.353 2.4 0 4.353-1.953 4.353-4.353 0-2.4-1.953-4.353-4.353-4.353zm0 7.773A3.424 3.424 0 0 1 4.58 8 3.424 3.424 0 0 1 8 4.58 3.424 3.424 0 0 1 11.42 8 3.423 3.423 0 0 1 8 11.42zm4.47-9.302c-.713 0-1.294.58-1.294 1.294a1.296 1.296 0 0 0 2.588 0c0-.714-.58-1.294-1.293-1.294zm0 1.649a.356.356 0 1 1 .001-.711.356.356 0 0 1 0 .71z"/></g></symbol><symbol viewBox="0 0 24 24" id="insurance" xmlns="http://www.w3.org/2000/svg"><path fill="#929292" d="M12.469 1.883V.47a.469.469 0 1 0-.938 0v1.414C5.803 2.065.834 5.556.096 11.158a1.693 1.693 0 0 0-.096.56c0 .26.21.47.469.47l.017-.001h.022a.469.469 0 0 0 .466-.43c.01-.124.023-.247.037-.365.279-.619 1.27-1.08 2.34-1.08 1.287 0 2.415.658 2.415 1.407 0 .259.21.469.468.469l.032-.002h.015l.005-.001a.47.47 0 0 0 .422-.458l.003-.114c.101-.706 1.197-1.3 2.406-1.3 1.286 0 2.414.657 2.414 1.406V16.5h-.469a.469.469 0 0 0-.468.469v3.75a.47.47 0 0 1-.938 0c0-.776-.63-1.407-1.406-1.407-.775 0-1.406.631-1.406 1.407A3.285 3.285 0 0 0 10.125 24a3.285 3.285 0 0 0 3.281-3.281v-3.75a.469.469 0 0 0-.469-.469h-.468v-4.781c0-.75 1.128-1.406 2.414-1.406 1.21 0 2.306.595 2.406 1.299l.003.115a.469.469 0 0 0 .474.46c.259 0 .468-.21.468-.468 0-.75 1.128-1.406 2.414-1.406 1.07 0 2.061.46 2.34 1.08.015.117.027.24.038.365.02.245.225.43.466.43l.022-.001h.017c.26 0 .469-.21.469-.468 0-.19-.033-.38-.097-.562-.736-5.595-5.699-9.091-11.434-9.274zm-6.602 8.29c-.615-.49-1.514-.798-2.515-.798-.749 0-1.453.174-2.02.473.991-3.317 3.803-5.78 7.517-6.67-1.864 1.69-2.723 4.49-2.982 6.994zm6.602 10.546a2.346 2.346 0 0 1-2.344 2.343 2.346 2.346 0 0 1-2.344-2.343.47.47 0 0 1 .938 0c0 .775.63 1.406 1.406 1.406.775 0 1.406-.63 1.406-1.406v-3.282h.938v3.282zm2.414-11.344c-.948 0-1.804.277-2.414.72V2.97a.469.469 0 1 0-.938 0v7.126c-.61-.443-1.466-.72-2.414-.72-.8 0-1.577.202-2.188.568l-.098.062c.487-3.979 2.328-6.826 4.7-7.16V4.22a.469.469 0 1 0 .938 0V2.845c2.372.334 4.213 3.181 4.7 7.16a2.906 2.906 0 0 0-.098-.062c-.611-.366-1.388-.568-2.188-.568zm5.765 0c-1 0-1.9.309-2.515.797-.258-2.497-1.116-5.301-2.982-6.995 3.714.891 6.526 3.354 7.517 6.671-.568-.299-1.271-.473-2.02-.473z"/></symbol><symbol viewBox="0 0 129 129" id="left-arrow" xmlns="http://www.w3.org/2000/svg"><path d="M88.6 121.3c.8.8 1.8 1.2 2.9 1.2s2.1-.4 2.9-1.2c1.6-1.6 1.6-4.2 0-5.8l-51-51 51-51c1.6-1.6 1.6-4.2 0-5.8s-4.2-1.6-5.8 0l-54 53.9c-1.6 1.6-1.6 4.2 0 5.8l54 53.9z"/></symbol><symbol viewBox="0 0 94 45" id="logo" xmlns="http://www.w3.org/2000/svg"><defs><path id="ha" d="M.316.141h10.9V11H.316z"/><path id="hc" d="M.594.69H18v28.188H.594z"/><path id="he" d="M.738.69H18.7v28.188H.738z"/><path id="hg" d="M0 .141h9.679V11H0z"/><path id="hi" d="M.632.134h9.678V11H.632z"/></defs><path d="M18.204 0l.437 1.118V27.07l-.437 1.118h5.471l-.437-1.118V1.083L23.648 0zm27.175 0l.43 1.118V27.07l-.43 1.118h5.464l-.43-1.118V1.083L50.82 0zM85.94 33.659v10.443h7.88v-1.924H88.1v-2.687h4.477v-1.895H88.1v-2.014h5.553v-1.923zm-8.603 0v6.686l-5.305-6.686h-1.846v10.443h2.117v-6.714l5.346 6.714h1.791V33.659zM61.486 44.102h2.146V33.659h-2.146zM49.267 33.597L44.76 44.102h2.263l1.04-2.417h4.445l1.035 2.417h2.298l-4.506-10.505h-2.07zm1.02 2.687l1.528 3.625H48.74l1.548-3.625z"/><g transform="translate(14 33.31)"><mask id="hb" fill="#fff"><use xlink:href="#ha"/></mask><path d="M8.078 8.021c-.618.64-1.382.965-2.312.965-.93 0-1.715-.326-2.326-.965-.618-.646-.916-1.465-.916-2.45 0-.987.298-1.806.916-2.45.611-.64 1.396-.967 2.326-.967.93 0 1.694.327 2.312.966.618.645.93 1.464.93 2.45 0 .986-.312 1.805-.93 2.451M5.766.141C4.204.141 2.9.662 1.857 1.724.823 2.765.317 4.05.317 5.57c0 1.507.506 2.791 1.54 3.847C2.9 10.48 4.204 11 5.767 11c1.561 0 2.853-.52 3.887-1.583 1.034-1.056 1.562-2.34 1.562-3.847 0-1.52-.528-2.805-1.562-3.846C8.62.662 7.328.141 5.766.141" mask="url(#hb)"/></g><g transform="translate(76 -.69)"><mask id="hd" fill="#fff"><use xlink:href="#hc"/></mask><path d="M5.627 15.333h7.332l-.02 5.526.02 6.902-.43 1.117H18l-.437-1.117V1.773l.41-1.083h-5.445l.431 1.118v12.428H5.627V1.773L6.037.69H.594l.43 1.118V27.76l-.43 1.117h5.47l-.437-1.117z" mask="url(#hd)"/></g><g transform="translate(54 -.69)"><mask id="hf" fill="#fff"><use xlink:href="#he"/></mask><path d="M18.7 9.272V.69H.738v8.582h.458C2.03 6.14 2.986 2.28 6.112 1.808c.006 0 .02-.007.026 0l1.293-.014V27.76l-.41 1.117h5.423l-.362-1.117V1.794l1.215.014h.028c3.125.472 4.082 4.333 4.916 7.464h.459z" mask="url(#hf)"/></g><path d="M7.617 27.12h-2.25V1.082L5.777 0H.333L.77 1.118V27.07l-.436 1.118h13.308v-8.58h-.457c-.89 3.338-1.924 7.511-5.569 7.511m26.862.001h-2.25V1.082L32.638 0h-5.443l.437 1.118V27.07l-.437 1.118h13.31v-8.58h-.459c-.888 3.338-1.923 7.511-5.568 7.511"/><g transform="translate(0 33.31)"><mask id="hh" fill="#fff"><use xlink:href="#hg"/></mask><path d="M5.45 2.147c.931 0 1.694.334 2.312.98.056.055.111.118.16.18l1.757-1.215a4.502 4.502 0 0 0-.341-.375C8.304.662 7.012.141 5.45.141c-1.562 0-2.867.521-3.909 1.576C.507 2.765 0 4.043 0 5.57c0 1.514.507 2.784 1.541 3.853C2.583 10.48 3.888 11 5.45 11c1.5 0 2.743-.48 3.756-1.452L7.658 8.12c-.597.57-1.326.874-2.208.874-.93 0-1.715-.34-2.333-.979-.611-.632-.916-1.458-.916-2.444 0-.985.305-1.812.916-2.444.618-.645 1.403-.979 2.333-.979" mask="url(#hh)"/></g><g transform="translate(30 33.31)"><mask id="hj" fill="#fff"><use xlink:href="#hi"/></mask><path d="M6.082 2.147c.93 0 1.694.334 2.312.973.056.062.111.125.16.187l1.756-1.215a4.323 4.323 0 0 0-.34-.375C8.936.655 7.644.134 6.082.134c-1.562 0-2.868.521-3.909 1.583C1.14 2.765.633 4.043.633 5.57c0 1.507.506 2.784 1.54 3.847C3.214 10.48 4.52 11 6.083 11c1.5 0 2.741-.48 3.755-1.458L8.29 8.112c-.597.576-1.326.874-2.208.874-.93 0-1.715-.333-2.333-.972-.61-.638-.917-1.465-.917-2.444 0-.985.306-1.812.917-2.45.618-.639 1.403-.973 2.333-.973" mask="url(#hj)"/></g></symbol><symbol viewBox="0 0 32 23" id="mail" xmlns="http://www.w3.org/2000/svg"><path d="M25.109 17.51a.495.495 0 0 1-.342-.136l-5.754-5.398a.5.5 0 1 1 .685-.728l5.754 5.398a.5.5 0 0 1-.343.864zm-19.207 0a.5.5 0 0 1-.343-.864l5.756-5.398a.5.5 0 0 1 .685.728l-5.756 5.398a.495.495 0 0 1-.342.136z"/><path d="M28.512 22.529H2.5a2.503 2.503 0 0 1-2.5-2.5V2.982c0-1.379 1.122-2.5 2.5-2.5h26.012c1.378 0 2.5 1.121 2.5 2.5v17.047c0 1.379-1.122 2.5-2.5 2.5zM2.5 1.482c-.827 0-1.5.673-1.5 1.5v17.047c0 .827.673 1.5 1.5 1.5h26.012c.827 0 1.5-.673 1.5-1.5V2.982c0-.827-.673-1.5-1.5-1.5H2.5z"/><path d="M15.506 14.018c-.665 0-1.33-.221-1.836-.662L.83 2.155a.501.501 0 0 1-.049-.706.503.503 0 0 1 .706-.048l12.84 11.2c.639.557 1.719.557 2.357 0L29.508 1.419a.5.5 0 0 1 .658.754L17.342 13.355c-.507.442-1.171.663-1.836.663z"/></symbol><symbol viewBox="0 0 25 25" id="material" xmlns="http://www.w3.org/2000/svg"><g fill="none"><path d="M0 0h25v25H0z"/><g fill="#929292"><path d="M22.712 20.203a9.133 9.133 0 0 1-2.247-5.663 9.133 9.133 0 0 1 1.826-5.812l.282-.374a.513.513 0 0 0 .044-.547l-1.633-3.103a.513.513 0 0 0-.454-.274h-.968a3.588 3.588 0 0 1-3.302-2.177l-.404-.942a.513.513 0 0 0-.47-.311h-4.9a.513.513 0 0 0-.472.31l-.404.943a3.588 3.588 0 0 1-3.3 2.177h-.97a.513.513 0 0 0-.454.274L3.253 7.807a.513.513 0 0 0 .045.547l.281.374a9.133 9.133 0 0 1 1.826 5.812 9.133 9.133 0 0 1-2.247 5.663.513.513 0 0 0-.062.588l1.552 2.776c.11.197.336.299.557.25l.618-.134a9.078 9.078 0 0 1 6.838 1.21.512.512 0 0 0 .549 0 9.078 9.078 0 0 1 6.837-1.21l.618.135a.513.513 0 0 0 .557-.25l1.552-2.777a.513.513 0 0 0-.062-.588zm-2.2 2.532l-.246-.054a10.093 10.093 0 0 0-7.33 1.178 10.084 10.084 0 0 0-7.332-1.178l-.246.054L4.165 20.6a10.165 10.165 0 0 0 2.265-6.022A10.162 10.162 0 0 0 4.398 8.11l-.086-.114L5.65 5.455h.658a4.613 4.613 0 0 0 4.245-2.798l.27-.631h4.224l.27.63a4.613 4.613 0 0 0 4.245 2.8h.658l1.338 2.541-.086.114a10.162 10.162 0 0 0-2.031 6.467c.08 2.196.882 4.32 2.265 6.022l-1.193 2.135z"/><path d="M20.552 8.183a.513.513 0 0 0 .027-.523l-.643-1.222a.513.513 0 0 0-.447-.274 5.346 5.346 0 0 1-4.78-3.128.513.513 0 0 0-.467-.301h-2.614a.513.513 0 0 0-.467.301 5.346 5.346 0 0 1-4.78 3.128.513.513 0 0 0-.446.274L5.292 7.66a.513.513 0 0 0 .027.523 10.934 10.934 0 0 1 1.82 6.42 10.835 10.835 0 0 1-1.94 5.802.513.513 0 0 0-.027.543l.373.667c.105.188.315.29.528.257a10.836 10.836 0 0 1 6.629 1.05.513.513 0 0 0 .466 0 10.91 10.91 0 0 1 6.63-1.05.513.513 0 0 0 .528-.257l.373-.667a.513.513 0 0 0-.027-.543 10.834 10.834 0 0 1-1.94-5.801 10.933 10.933 0 0 1 1.82-6.42zm-.95 12.625a11.947 11.947 0 0 0-6.667 1.085 11.947 11.947 0 0 0-6.667-1.085l-.047-.085a11.853 11.853 0 0 0 1.943-6.082c.087-2.369-.56-4.76-1.825-6.77l.365-.693a6.34 6.34 0 0 0 5.245-3.417h1.972a6.339 6.339 0 0 0 5.245 3.417l.365.694a11.973 11.973 0 0 0-1.824 6.77c.08 2.17.75 4.265 1.942 6.081l-.047.085z"/><path d="M12.935 5.317a.517.517 0 0 0 .513-.513.517.517 0 0 0-.513-.512.514.514 0 0 0 0 1.025zm2.769 5.743h-5.538a.513.513 0 1 0 0 1.026h5.538a.513.513 0 1 0 0-1.026zm0 1.77h-5.538a.513.513 0 1 0 0 1.025h5.538a.513.513 0 1 0 0-1.026zm0 1.769h-5.538a.513.513 0 1 0 0 1.025h5.538a.513.513 0 1 0 0-1.025z"/></g></g></symbol><symbol viewBox="0 0 25 25" id="payment" xmlns="http://www.w3.org/2000/svg"><g fill="none"><path d="M0 0h25v25H0z"/><g fill="#929292"><path d="M23.08 4.127L15.762.166C15.07-.21 14.115.079 13.74.773L9.46 8.725H4.256c-.665 0-1.186.52-1.186 1.185v12.868c0 .665.521 1.185 1.186 1.185h16.627c.665 0 1.185-.52 1.185-1.185V19.77h.492c.26 0 .462-.203.462-.463v-3.441a.457.457 0 0 0-.462-.463h-.492V12.02c0-.55-.405-1.04-.925-1.156l2.544-4.714a1.516 1.516 0 0 0-.607-2.024zm-5.206-1.764l-4.568 8.473h-1.302l4.887-8.993.983.52zm-3.296-1.156c.144-.26.491-.376.752-.232l.723.405-5.09 9.456h-1.59l5.205-9.63zM3.966 9.88c0-.086.116-.23.26-.23H8.94l-.636 1.156H4.226c-.087 0-.173 0-.26.029V9.88zm17.147 12.897a.26.26 0 0 1-.26.26H4.226a.26.26 0 0 1-.26-.26V12.02a.26.26 0 0 1 .26-.26h16.598a.26.26 0 0 1 .26.26v3.383H19.32c-.78 0-1.388.636-1.388 1.388v1.59c0 .781.636 1.389 1.388 1.389h1.793v3.007zm.925-6.448h.03v2.515H19.32a.457.457 0 0 1-.463-.462v-1.59c0-.261.203-.463.463-.463h2.718zm.81-10.641l-2.776 5.147h-5.725l4.337-8.01 3.932 2.14c.29.115.376.462.232.723z"/><path d="M21.084 5.255l-.231-.116c-.579-.318-1.36-.086-1.678.492l-.289.55c-.144.288-.202.635-.086.953.086.319.318.579.607.723l.231.116c.174.087.376.145.578.145a1.3 1.3 0 0 0 1.1-.637l.288-.549c.29-.607.058-1.359-.52-1.677zm-.318 1.243l-.29.55a.326.326 0 0 1-.433.115l-.231-.144a.433.433 0 0 1-.145-.174c-.029-.086-.029-.173.029-.231l.29-.55c.057-.086.173-.173.288-.173a.26.26 0 0 1 .145.029l.231.116a.448.448 0 0 1 .116.462z"/></g></g></symbol><symbol viewBox="0 0 13 16" id="pinterest" xmlns="http://www.w3.org/2000/svg"><path fill="#FFF" d="M12.351 3.994a5.182 5.182 0 0 0-1.193-2.114A5.735 5.735 0 0 0 9.23.518 6.261 6.261 0 0 0 6.445.007C6.118.022 5.77.04 5.437.088c-.93.133-1.748.41-2.5.847A5.868 5.868 0 0 0 .703 3.193c-.27.49-.536 1.351-.649 1.914-.133.666-.015 1.82.253 2.47.332.803.62 1.18 1.286 1.675.005.003.411.304.716.304.532-.01.635-.509.685-.748.009-.043.017-.086.028-.125.009-.035.02-.073.033-.112.072-.235.172-.557.004-.848a1.556 1.556 0 0 0-.199-.262c-.033-.038-.066-.074-.092-.114-.234-.347-.352-.782-.352-1.293 0-.674.152-1.284.466-1.865.568-1.054 1.512-1.719 2.73-1.924.681-.114 1.516-.062 2.107.127a2.85 2.85 0 0 1 1.358.905c.357.44.56.998.606 1.66.022.325.01.687-.041 1.136-.123 1.093-.44 1.973-.944 2.614-.408.522-.847.783-1.342.8H7.29c-.285 0-.501-.063-.7-.205a.91.91 0 0 1-.376-.555c-.065-.27.014-.554.098-.855l.013-.049a21.3 21.3 0 0 1 .227-.754c.12-.382.244-.777.347-1.235.116-.52.131-.942.046-1.289-.105-.432-.338-.756-.691-.964-.364-.212-.907-.259-1.348-.107-.659.224-1.161.821-1.378 1.637a3.5 3.5 0 0 0-.094 1.286c.036.342.112.653.252 1.026a2.13 2.13 0 0 0-.039.134c-.154.641-.303 1.274-.452 1.906-.14.587-.278 1.174-.42 1.767l-.031.132c-.147.613-.3 1.246-.335 2.004l-.015.313c-.031.587-.063 1.194.016 1.76.015.105.053.37.31.465a.393.393 0 0 0 .233.076c.206 0 .34-.14.556-.387.5-.57.926-1.289 1.302-2.198.168-.407.279-.844.386-1.267l.065-.25c.074-.287.148-.579.22-.867.131.109.28.209.45.303a3.21 3.21 0 0 0 1.352.387c.48.034.948-.027 1.484-.181a4.386 4.386 0 0 0 1.16-.525c1.296-.83 2.18-2.281 2.487-4.087.092-.54.132-.972.132-1.448 0-.55-.066-1.05-.196-1.486zm-.636 2.815c-.274 1.607-1.045 2.89-2.172 3.61a3.67 3.67 0 0 1-.971.44c-.457.132-.842.183-1.24.156a2.468 2.468 0 0 1-1.055-.3c-.317-.175-.522-.363-.665-.61a.355.355 0 0 0-.65.09l-.16.631c-.075.297-.15.598-.228.894l-.065.255c-.106.417-.206.81-.355 1.171-.318.77-.67 1.386-1.074 1.877-.024-.404 0-.852.022-1.287l.016-.317c.032-.691.176-1.291.316-1.871l.032-.133c.142-.594.28-1.181.42-1.77.149-.63.298-1.263.451-1.903l.017-.059c.038-.127.081-.271.023-.417a3.422 3.422 0 0 1-.238-.923 2.825 2.825 0 0 1 .075-1.03c.155-.584.491-1.003.923-1.15a.998.998 0 0 1 .324-.052.9.9 0 0 1 .434.1c.184.108.302.279.361.522.058.235.04.56-.05.967-.096.43-.21.793-.331 1.178-.078.248-.158.5-.234.777l-.014.048c-.098.357-.21.761-.104 1.208a1.6 1.6 0 0 0 .653.966c.318.227.683.339 1.114.339l.091-.002c.708-.024 1.34-.384 1.878-1.07.585-.747.952-1.746 1.09-2.972.055-.493.07-.895.044-1.264-.056-.81-.313-1.501-.762-2.056a3.558 3.558 0 0 0-1.693-1.134c-.697-.224-1.65-.284-2.443-.15C4.053 1.81 2.934 2.6 2.258 3.853a4.522 4.522 0 0 0-.55 2.2c0 .654.158 1.222.47 1.687.045.065.096.126.15.187.046.052.09.102.112.139.013.051-.036.21-.063.296-.015.05-.03.096-.04.14a2.562 2.562 0 0 0-.037.162c-.01.046-.024.112-.038.161a1.598 1.598 0 0 1-.242-.14c-.564-.42-.771-.69-1.055-1.377C.752 6.793.647 5.77.752 5.246c.119-.59.37-1.343.574-1.711a5.168 5.168 0 0 1 1.968-1.988A6.107 6.107 0 0 1 5.538.79c.302-.043.616-.06.94-.075a5.617 5.617 0 0 1 2.467.453 5.03 5.03 0 0 1 1.692 1.196c.484.52.822 1.118 1.034 1.832.11.371.166.804.166 1.286 0 .433-.037.83-.122 1.328z" opacity=".69"/></symbol><symbol viewBox="0 0 129 129" id="right-arrow" xmlns="http://www.w3.org/2000/svg"><path d="M40.4 121.3c-.8.8-1.8 1.2-2.9 1.2s-2.1-.4-2.9-1.2c-1.6-1.6-1.6-4.2 0-5.8l51-51-51-51c-1.6-1.6-1.6-4.2 0-5.8 1.6-1.6 4.2-1.6 5.8 0l53.9 53.9c1.6 1.6 1.6 4.2 0 5.8l-53.9 53.9z"/></symbol><symbol viewBox="0 0 22 24" id="scissors" xmlns="http://www.w3.org/2000/svg"><g fill="#FFF"><path d="M10.802 14.625a.469.469 0 1 0 0 .938.469.469 0 0 0 0-.938zm6.094 7.5a2.816 2.816 0 0 0 2.812-2.813 2.816 2.816 0 0 0-2.812-2.812 2.816 2.816 0 0 0-2.813 2.813 2.816 2.816 0 0 0 2.813 2.812zm0-4.688c1.034 0 1.875.842 1.875 1.875a1.877 1.877 0 0 1-1.875 1.875 1.877 1.877 0 0 1-1.875-1.875c0-1.033.841-1.875 1.875-1.875zM4.708 16.5a2.816 2.816 0 0 0-2.812 2.813 2.816 2.816 0 0 0 2.812 2.812 2.816 2.816 0 0 0 2.813-2.813A2.816 2.816 0 0 0 4.708 16.5zm0 4.688a1.877 1.877 0 0 1-1.875-1.875c0-1.034.842-1.875 1.875-1.875 1.034 0 1.875.84 1.875 1.875a1.877 1.877 0 0 1-1.875 1.875z"/><path d="M6.694 15.065a4.683 4.683 0 0 0-5.066.714C.266 16.969-.284 18.814.192 20.597.737 22.632 2.575 24 4.71 24c2.58 0 3.734-1.73 4.956-3.56.326-.489.66-.99 1.034-1.478 2.63 3.687 3.836 5.035 6.076 5.034 2.281 0 4.304-1.577 4.72-3.766a4.698 4.698 0 0 0-1.421-4.363 4.673 4.673 0 0 0-3.178-1.242 4.65 4.65 0 0 0-1.977.436c-.438.204-.92.151-1.256-.117l6.45-8.702.003-.004A5.231 5.231 0 0 0 20.23.266C20.214.25 20.105.011 19.819 0a.469.469 0 0 0-.387.181l-8.636 11.115L2.173.181a.469.469 0 0 0-.76.028 5.235 5.235 0 0 0 .162 6.035 365.787 365.787 0 0 1 6.328 8.744c-.332.235-.791.273-1.209.077zm2.191 4.855c-1.172 1.755-2.098 3.142-4.176 3.142-1.727 0-3.178-1.088-3.611-2.708-.384-1.435.056-2.917 1.146-3.868a3.746 3.746 0 0 1 4.052-.572c.732.343 1.545.268 2.147-.158a890.77 890.77 0 0 0 1.69 2.408c-.465.583-.862 1.178-1.248 1.756zm6.43-4.009a3.72 3.72 0 0 1 1.58-.348c.946 0 1.849.352 2.543.993a3.766 3.766 0 0 1 1.137 3.499c-.333 1.747-1.96 3.004-3.798 3.004-1.82 0-2.802-1.09-5.673-5.146-.471-.664-1.034-1.468-1.843-2.623-.302-.493-.183-1.211.279-1.673.033-.034.064-.072.076-.086.543-.4 1.338-.36 1.795.089l1.333 1.717c.59.769 1.647 1.005 2.57.574zm4.43-14.606a4.317 4.317 0 0 1-.387 4.381l-6.31 8.514-1.66-2.14 8.358-10.755zm-17.88.01L10.4 12.317c-.653.019-1.243.308-1.53.642a2.477 2.477 0 0 0-.586.942 361.511 361.511 0 0 0-5.959-8.219 4.3 4.3 0 0 1-.461-4.369z"/><path d="M11.66 16.208a.469.469 0 0 0-.106.655l.973 1.348a.469.469 0 0 0 .76-.549l-.973-1.348a.469.469 0 0 0-.655-.106z"/></g></symbol><symbol viewBox="0 0 234 234" id="settings" xmlns="http://www.w3.org/2000/svg"><path d="M7.5 42.571h39.235c3.327 12.646 14.856 22 28.531 22s25.204-9.354 28.531-22H226.5a7.5 7.5 0 0 0 0-15H103.796c-3.327-12.646-14.856-22-28.531-22s-25.204 9.354-28.531 22H7.5a7.5 7.5 0 0 0 0 15zm67.766-22c7.995 0 14.5 6.505 14.5 14.5s-6.505 14.5-14.5 14.5-14.5-6.505-14.5-14.5 6.505-14.5 14.5-14.5zM226.5 109.5h-49.99c-3.327-12.646-14.856-22-28.531-22-13.675 0-25.204 9.354-28.531 22H7.5a7.5 7.5 0 0 0 0 15h111.949c3.327 12.645 14.856 22 28.531 22 13.675 0 25.204-9.355 28.531-22h49.99a7.5 7.5 0 1 0-.001-15zm-78.52 22c-7.995 0-14.5-6.505-14.5-14.5s6.505-14.5 14.5-14.5 14.5 6.505 14.5 14.5-6.505 14.5-14.5 14.5zm78.52 59.929H103.796c-3.327-12.645-14.856-22-28.531-22s-25.204 9.355-28.531 22H7.5a7.5 7.5 0 0 0 0 15h39.235c3.327 12.646 14.856 22 28.531 22s25.204-9.354 28.531-22H226.5a7.5 7.5 0 0 0 0-15zm-151.234 22c-7.995 0-14.5-6.505-14.5-14.5s6.505-14.5 14.5-14.5 14.5 6.505 14.5 14.5-6.505 14.5-14.5 14.5z" fill="#000002"/></symbol><symbol viewBox="0 0 448 512" id="share-alt" xmlns="http://www.w3.org/2000/svg"><path d="M352 320c-22.608 0-43.387 7.819-59.79 20.895l-102.486-64.054a96.551 96.551 0 0 0 0-41.683l102.486-64.054C308.613 184.181 329.392 192 352 192c53.019 0 96-42.981 96-96S405.019 0 352 0s-96 42.981-96 96c0 7.158.79 14.13 2.276 20.841L155.79 180.895C139.387 167.819 118.608 160 96 160c-53.019 0-96 42.981-96 96s42.981 96 96 96c22.608 0 43.387-7.819 59.79-20.895l102.486 64.054A96.301 96.301 0 0 0 256 416c0 53.019 42.981 96 96 96s96-42.981 96-96-42.981-96-96-96z"/></symbol><symbol viewBox="0 0 25 25" id="shipping" xmlns="http://www.w3.org/2000/svg"><g fill="none"><path d="M0 0h25v25H0z"/><path fill="#929292" d="M24.53 18.335h-1.318a2.635 2.635 0 0 1-5.236 0h-8.52a2.636 2.636 0 0 1-5.237 0H1.44a.44.44 0 0 1-.439-.44V5.458a.44.44 0 0 1 .44-.44h15.24a.44.44 0 0 1 .44.44V7.92h3.72a.44.44 0 0 1 .36.189l2.403 3.439.94 1.318.342.487c.052.074.08.16.08.25v4.279a.44.44 0 0 1-.435.452zm-3.927 1.318a1.757 1.757 0 1 0-1.757-1.757c0 .974.783 1.767 1.757 1.779v-.022zm-13.757 0a1.757 1.757 0 1 0-1.757-1.757c0 .974.783 1.767 1.757 1.779v-.022zM1.887 5.896v7.871h11.925a.44.44 0 1 1 0 .879H1.887v2.81h2.341a2.636 2.636 0 0 1 5.236 0h6.777v-9.56h-3.17a.44.44 0 0 1 0-.879h3.17v-1.12H1.887zM20.612 8.8h-3.514v8.658h.878a2.635 2.635 0 0 1 5.236 0h.878v-3.712l-.131-.189h-5.36a.439.439 0 0 1-.438-.439v-3.25a.44.44 0 0 1 .439-.44h2.46l-.448-.628zm1.063 1.516h-2.636v2.372h4.31l-1.674-2.372z"/></g></symbol><symbol viewBox="0 0 25 25" id="size" xmlns="http://www.w3.org/2000/svg"><g fill="none"><path d="M0 0h25v25H0z"/><path d="M10.892 13.22l-6.637 6.638v-3.299a.627.627 0 1 0-1.255 0v4.813a.626.626 0 0 0 .388.58.63.63 0 0 0 .24.048H8.44a.627.627 0 1 0 0-1.255H5.142l6.637-6.638a.627.627 0 0 0-.887-.887zm12.06-10.832a.629.629 0 0 0-.58-.388H17.56a.627.627 0 1 0 0 1.255h3.299L14.22 9.892a.627.627 0 1 0 .887.888l6.637-6.638v3.299a.627.627 0 1 0 1.255 0V2.628a.624.624 0 0 0-.048-.24z" fill="#929292"/></g></symbol></svg>